<svg xmlns="http://www.w3.org/2000/svg" width="30.261" height="21.213" viewBox="0 0 30.261 21.213">
  <g id="그룹_1548" data-name="그룹 1548" transform="translate(-540.844 -34.791)">
    <g id="패스_1466" data-name="패스 1466" transform="translate(545.857 35.397)" fill="#ddd">
      <path d="M 9.999997138977051 19.5 C 4.738060474395752 19.5 -2.451174974441528 15.80007076263428 -4.4840407371521 10.47016429901123 C -3.663779735565186 8.024714469909668 -1.543983101844788 5.512417316436768 1.359057545661926 3.552930116653442 C 4.191217422485352 1.641280055046082 7.421477317810059 0.5 9.999997138977051 0.5 C 15.24102401733398 0.5 23.15830230712891 5.016790866851807 24.72577667236328 10.12858486175537 C 24.02881240844727 12.34023189544678 21.90596008300781 14.67747783660889 18.8750171661377 16.56299018859863 C 15.91873741149902 18.40205001831055 12.60097789764404 19.5 9.999997138977051 19.5 Z" stroke="none"/>
      <path d="M 9.999997138977051 1 C 7.517247200012207 1 4.391557693481445 2.109289169311523 1.638776779174805 3.96735954284668 C -1.107099533081055 5.820765495300293 -3.12513542175293 8.169904708862305 -3.95091438293457 10.45933818817139 C -3.030303955078125 12.72595024108887 -1.039251327514648 14.85615634918213 1.693027496337891 16.48748016357422 C 4.328067779541016 18.06073951721191 7.433477401733398 19 9.999997138977051 19 C 12.51153755187988 19 15.73056793212891 17.93025970458984 18.61090850830078 16.1384391784668 C 21.47341918945312 14.35769844055176 23.49161338806152 12.18190002441406 24.20002937316895 10.12654685974121 C 23.47721862792969 7.964591026306152 21.4494686126709 5.707005500793457 18.58651733398438 3.890430450439453 C 15.73407745361328 2.080539703369141 12.52416801452637 1 9.999997138977051 1 M 9.999997138977051 0 C 15.52284812927246 0 23.7206974029541 4.746089935302734 25.24755859375 10.13024997711182 C 23.76562690734863 15.25671005249023 15.52284812927246 20 9.999997138977051 20 C 4.477147102355957 20 -2.991703033447266 16.0958194732666 -5.013181686401367 10.48120021820068 C -3.261232376098633 4.8756103515625 4.477147102355957 0 9.999997138977051 0 Z" stroke="none" fill="#ddd"/>
    </g>
    <circle id="타원_271" data-name="타원 271" cx="8" cy="8" r="8" transform="translate(547.857 37.397)" fill="#fff"/>
    <circle id="타원_272" data-name="타원 272" cx="6" cy="6" r="6" transform="translate(549.857 39.397)" fill="#ddd"/>
    <rect id="사각형_2307" data-name="사각형 2307" width="2" height="28" transform="translate(545.25 36.205) rotate(-45)" fill="#ddd"/>
  </g>
</svg>
