<svg xmlns="http://www.w3.org/2000/svg" width="37.643" height="34.643" viewBox="0 0 37.643 34.643">
  <g id="체크박스" transform="translate(0 2.643)">
    <g id="패스_1492" data-name="패스 1492" fill="#fff">
      <path d="M 28 30.5 L 4 30.5 C 2.621500015258789 30.5 1.5 29.48406028747559 1.5 28.23529052734375 L 1.5 3.764709949493408 C 1.5 2.515939950942993 2.621500015258789 1.5 4 1.5 L 28 1.5 C 29.37849998474121 1.5 30.5 2.515939950942993 30.5 3.764709949493408 L 30.5 28.23529052734375 C 30.5 29.48406028747559 29.37849998474121 30.5 28 30.5 Z" stroke="none"/>
      <path d="M 4 3 C 3.457939147949219 3 3 3.350189208984375 3 3.76470947265625 L 3 28.23529052734375 C 3 28.64981079101562 3.457939147949219 29 4 29 L 28 29 C 28.54206085205078 29 29 28.64981079101562 29 28.23529052734375 L 29 3.76470947265625 C 29 3.350189208984375 28.54206085205078 3 28 3 L 4 3 M 4 0 L 28 0 C 30.20914077758789 0 32 1.685520172119141 32 3.76470947265625 L 32 28.23529052734375 C 32 30.31447982788086 30.20914077758789 32 28 32 L 4 32 C 1.790859222412109 32 0 30.31447982788086 0 28.23529052734375 L 0 3.76470947265625 C 0 1.685520172119141 1.790859222412109 0 4 0 Z" stroke="none" fill="#212121"/>
    </g>
    <path id="패스_3" data-name="패스 3" d="M451.067,855.2l6.216,9L472.639,848l2.428-2.794" transform="translate(-443.067 -842.204)" fill="none" stroke="#fff" stroke-linecap="round" stroke-linejoin="round" stroke-width="8"/>
    <path id="패스_4" data-name="패스 4" d="M451.067,853.1l5.439,7.108,13.437-12.794,2.124-2.206" transform="translate(-443.067 -839.204)" fill="none" stroke="#212121" stroke-linecap="round" stroke-linejoin="round" stroke-width="3"/>
  </g>
</svg>
