<svg xmlns="http://www.w3.org/2000/svg" xmlns:xlink="http://www.w3.org/1999/xlink" width="370" height="370" viewBox="0 0 370 370">
  <defs>
    <filter id="패스_1472" x="0" y="0" width="370" height="370" filterUnits="userSpaceOnUse">
      <feOffset dx="5" dy="20" input="SourceAlpha"/>
      <feGaussianBlur stdDeviation="20" result="blur"/>
      <feFlood flood-color="#1e57e9" flood-opacity="0.4"/>
      <feComposite operator="in" in2="blur"/>
      <feComposite in="SourceGraphic"/>
    </filter>
    <filter id="사각형_2284" x="100" y="150.204" width="176" height="115" filterUnits="userSpaceOnUse">
      <feOffset dx="8" dy="20" input="SourceAlpha"/>
      <feGaussianBlur stdDeviation="10" result="blur-2"/>
      <feFlood flood-opacity="0.161"/>
      <feComposite operator="in" in2="blur-2"/>
      <feComposite in="SourceGraphic"/>
    </filter>
    <filter id="패스_1481" x="234.23" y="71.607" width="95.349" height="79.436" filterUnits="userSpaceOnUse">
      <feOffset dx="5" dy="8" input="SourceAlpha"/>
      <feGaussianBlur stdDeviation="5" result="blur-3"/>
      <feFlood flood-opacity="0.161"/>
      <feComposite operator="in" in2="blur-3"/>
      <feComposite in="SourceGraphic"/>
    </filter>
  </defs>
  <g id="그룹_1490" data-name="그룹 1490" transform="translate(-180 -343)">
    <g transform="matrix(1, 0, 0, 1, 180, 343)" filter="url(#패스_1472)">
      <path id="패스_1472-2" data-name="패스 1472" d="M125,0A125,125,0,1,1,0,125,125,125,0,0,1,125,0Z" transform="translate(55 40)" fill="#438bff"/>
    </g>
    <g id="그룹_1366" data-name="그룹 1366" transform="translate(290.398 432.204)">
      <g transform="matrix(1, 0, 0, 1, -110.4, -89.2)" filter="url(#사각형_2284)">
        <path id="사각형_2284-2" data-name="사각형 2284" d="M55,0h6a55,55,0,0,1,55,55v0a0,0,0,0,1,0,0H0a0,0,0,0,1,0,0v0A55,55,0,0,1,55,0Z" transform="translate(122 160.2)" fill="#fff"/>
      </g>
      <ellipse id="타원_269" data-name="타원 269" cx="32.5" cy="37" rx="32.5" ry="37" transform="translate(37.602 9)" fill="#e5e5e5"/>
      <circle id="타원_289" data-name="타원 289" cx="36.5" cy="36.5" r="36.5" transform="translate(33.602 7)" fill="#fff"/>
    </g>
    <g transform="matrix(1, 0, 0, 1, 180, 343)" filter="url(#패스_1481)">
      <path id="패스_1481-2" data-name="패스 1481" d="M5748.015,6526.822l17.206,16.652,38.6-34.659" transform="translate(-5498.92 -6425)" fill="none" stroke="#fff" stroke-width="14"/>
    </g>
  </g>
</svg>
