<svg xmlns="http://www.w3.org/2000/svg" xmlns:xlink="http://www.w3.org/1999/xlink" width="249.99" height="250" viewBox="0 0 249.99 250">
  <defs>
    <filter id="패스_1483" x="63.394" y="42.795" width="140" height="112.156" filterUnits="userSpaceOnUse">
      <feOffset dx="8" dy="20" input="SourceAlpha"/>
      <feGaussianBlur stdDeviation="10" result="blur"/>
      <feFlood flood-opacity="0.161"/>
      <feComposite operator="in" in2="blur"/>
      <feComposite in="SourceGraphic"/>
    </filter>
    <filter id="사각형_17" x="53" y="92" width="160" height="140" filterUnits="userSpaceOnUse">
      <feOffset dx="8" dy="20" input="SourceAlpha"/>
      <feGaussianBlur stdDeviation="10" result="blur-2"/>
      <feFlood flood-opacity="0.161"/>
      <feComposite operator="in" in2="blur-2"/>
      <feComposite in="SourceGraphic"/>
    </filter>
  </defs>
  <g id="그룹_1546" data-name="그룹 1546" transform="translate(-235 -385)">
    <ellipse id="타원_286" data-name="타원 286" cx="124.995" cy="125" rx="124.995" ry="125" transform="translate(235 385)" fill="#438bff"/>
    <g id="그룹_1365" data-name="그룹 1365" transform="translate(234.838 384.807)">
      <g id="그룹_1362" data-name="그룹 1362" transform="translate(75.005 58.988)">
        <g id="그룹_1372" data-name="그룹 1372">
          <g transform="matrix(1, 0, 0, 1, -74.84, -58.79)" filter="url(#패스_1483)">
            <path id="패스_1483-2" data-name="패스 1483" d="M89.15,89.32V63.479s4.808-20.315,34.941-20.315S157.15,63.479,157.15,63.479V89.32" transform="translate(2.24 15.63)" fill="none" stroke="#fff" stroke-width="12"/>
          </g>
          <g transform="matrix(1, 0, 0, 1, -74.84, -58.79)" filter="url(#사각형_17)">
            <rect id="사각형_17-2" data-name="사각형 17" width="100" height="80" transform="translate(75 102)" fill="#fff"/>
          </g>
          <circle id="타원_275" data-name="타원 275" cx="10.021" cy="10.021" r="10.021" transform="translate(40.131 68.748)" fill="#ddd"/>
          <rect id="사각형_2321" data-name="사각형 2321" width="10" height="27" transform="translate(45.157 72.205)" fill="#ddd"/>
        </g>
      </g>
    </g>
  </g>
</svg>
